<svg width="70" height="70" viewBox="0 0 70 70" fill="none" xmlns="http://www.w3.org/2000/svg">
<path d="M69.9775 34.9962C69.9747 40.1616 68.8306 45.2623 66.627 49.933C64.4234 54.6037 61.2149 58.7287 57.2315 62.0123C53.2481 65.296 48.5883 67.657 43.5861 68.9262C38.584 70.1955 33.3633 70.3414 28.2981 69.3537C23.233 68.366 18.4488 66.269 14.2885 63.2131C10.1281 60.1571 6.69459 56.2179 4.23393 51.6776C1.77328 47.1373 0.346418 42.1084 0.0556071 36.9513C-0.235204 31.7942 0.617232 26.6366 2.55183 21.848C3.32825 23.1469 4.42755 24.2225 5.74265 24.9699C7.05775 25.7172 8.54381 26.1109 10.0561 26.1126H10.2202C7.69089 33.521 8.36988 42.134 12.7045 49.0271C19.6874 60.13 33.7048 64.2948 45.8107 58.9607C57.4468 53.8329 63.0171 40.3238 60.7227 31.1439H35.3974V39.1804H51.9409C50.9755 45.9123 44.8003 51.7424 37.8012 52.7764C30.0975 53.9134 22.4259 49.9644 18.9859 43.0907L18.9183 42.9554C16.5692 38.1657 16.4083 32.326 18.6866 27.4944C22.7058 18.9297 33.4892 14.8583 41.9846 18.672C44.3208 19.7221 47.2041 21.8931 47.2169 21.8931L53.4598 16.5075C42.9725 6.80572 29.19 6.2517 18.3841 14.6361C17.8979 13.1724 17.0353 11.8627 15.8829 10.8387C14.7305 9.81475 13.3291 9.11254 11.8195 8.80276C16.8647 4.33041 23.0931 1.41183 29.7558 0.397878C36.4185 -0.616078 43.232 0.317748 49.3772 3.0871C55.5224 5.85644 60.7377 10.3434 64.3961 16.0087C68.0546 21.6739 70.0005 28.2762 70 35.022L69.9775 34.9962ZM5.68289 17.3675C5.6848 18.2328 5.94291 19.0782 6.4246 19.7968C6.90629 20.5154 7.58995 21.0749 8.38921 21.4048C9.18848 21.7346 10.0675 21.8199 10.9152 21.6499C11.7628 21.4799 12.5412 21.0623 13.1518 20.4497C13.7624 19.8371 14.178 19.0571 14.3459 18.2083C14.5139 17.3594 14.4267 16.4798 14.0955 15.6805C13.7642 14.8812 13.2036 14.1981 12.4847 13.7175C11.7657 13.2369 10.9206 12.9804 10.0561 12.9804C9.48109 12.9809 8.91182 13.0947 8.3808 13.3154C7.84979 13.5362 7.36743 13.8595 6.9613 14.2669C6.55517 14.6743 6.23323 15.1579 6.01387 15.6899C5.79452 16.2219 5.68205 16.792 5.68289 17.3675Z" fill="url(#paint0_linear)"/>
<defs>
<linearGradient id="paint0_linear" x1="1.78814e-07" y1="35" x2="70" y2="35" gradientUnits="userSpaceOnUse">
<stop stop-color="#00B9FE"/>
<stop offset="1" stop-color="#24BDC7"/>
</linearGradient>
</defs>
</svg>
